<svg width="24" height="24" viewBox="0 0 24 24" fill="none" xmlns="http://www.w3.org/2000/svg">
<path d="M7.15 21.1C6.9 20.85 6.775 20.554 6.775 20.212C6.775 19.8707 6.9 19.575 7.15 19.325L14.475 12L7.125 4.65C6.89167 4.41667 6.775 4.125 6.775 3.775C6.775 3.425 6.9 3.125 7.15 2.875C7.4 2.625 7.696 2.5 8.038 2.5C8.37933 2.5 8.675 2.625 8.925 2.875L17.325 11.3C17.425 11.4 17.496 11.5083 17.538 11.625C17.5793 11.7417 17.6 11.8667 17.6 12C17.6 12.1333 17.5793 12.2583 17.538 12.375C17.496 12.4917 17.425 12.6 17.325 12.7L8.9 21.125C8.66667 21.3583 8.37933 21.475 8.038 21.475C7.696 21.475 7.4 21.35 7.15 21.1Z" fill="white"/>
</svg>
