<svg width="20" height="12" viewBox="0 0 20 12" fill="none" xmlns="http://www.w3.org/2000/svg">
<path d="M0.9 1.1476C1.15 0.897604 1.446 0.772604 1.788 0.772604C2.12933 0.772604 2.425 0.897604 2.675 1.1476L10 8.4726L17.35 1.1226C17.5833 0.88927 17.875 0.772604 18.225 0.772604C18.575 0.772604 18.875 0.897604 19.125 1.1476C19.375 1.3976 19.5 1.6936 19.5 2.0356C19.5 2.37694 19.375 2.6726 19.125 2.9226L10.7 11.3226C10.6 11.4226 10.4917 11.4936 10.375 11.5356C10.2583 11.5769 10.1333 11.5976 10 11.5976C9.86667 11.5976 9.74167 11.5769 9.625 11.5356C9.50833 11.4936 9.4 11.4226 9.3 11.3226L0.875 2.8976C0.641667 2.66427 0.525 2.37694 0.525 2.0356C0.525 1.6936 0.65 1.3976 0.9 1.1476Z" fill="white"/>
</svg>
